<svg xmlns="http://www.w3.org/2000/svg" xmlns:xlink="http://www.w3.org/1999/xlink" fill="none" version="1.1" width="1000" height="1000" viewBox="0 0 1000 1000"><defs><clipPath id="master_svg0_31_012"><rect x="0" y="0" width="1000" height="1000" rx="128"/></clipPath></defs><g clip-path="url(#master_svg0_31_012)"><rect x="0" y="0" width="1000" height="1000" rx="128" fill="#000000" fill-opacity="1"/><g><path d="M650,365C547.115,365,459.347,429.741,425.22,520.7090000000001L481.415,541.781C507.011,473.555,572.8340000000001,425,650,425C670.9490000000001,425,691.061,428.578,709.76,435.15700000000004C779.795,459.8,830,526.538,830,605C830,704.4110000000001,749.411,785,650,785L350,785C250.58870000000002,785,170,704.4110000000001,170,605C170,526.538,220.2038,459.8,290.241,435.15700000000004C290.081,431.79200000000003,290,428.405,290,425C290,309.0203,384.02,215,500,215C597.26,215,679.079,281.11969999999997,702.956,370.86199999999997C685.919,367.025,668.1949999999999,365,650,365Z" fill="#FFFFFF" fill-opacity="1" style="mix-blend-mode:passthrough"/></g></g></svg>