<svg xmlns="http://www.w3.org/2000/svg" xmlns:xlink="http://www.w3.org/1999/xlink" fill="none" version="1.1" width="3068" height="851" viewBox="0 0 3068 851"><defs><clipPath id="master_svg0_26_38"><rect x="0" y="0" width="3068" height="851" rx="0"/></clipPath><clipPath id="master_svg1_26_67"><rect x="133" y="89" width="553" height="672" rx="12"/></clipPath></defs><g clip-path="url(#master_svg0_26_38)"><rect x="0" y="0" width="3068" height="851" rx="0" fill="#000000" fill-opacity="1"/><g clip-path="url(#master_svg1_26_67)"><g transform="matrix(1.3333332538604736,0,0,-1.3333332538604736,-44.33332276344299,1775.6654668649426)"><g transform="matrix(0.10000000149011612,0,0,0.10000000149011612,119.69999980181456,684.8995594128974)"><g><path d="M4280.42,5800.76951171875L133,5800.76951171875L133,760.99951171875L4280.42,760.99951171875L4280.42,5800.76951171875Z" fill="#FFFFFF" fill-opacity="1" style="mix-blend-mode:passthrough"/></g><g><path d="M185.921875,814.9089813232422L4227.451875000001,814.9089813232422L4227.451875000001,5746.708981323242L185.921875,5746.708981323242L185.921875,814.9089813232422Z" fill="#000000" fill-opacity="1" style="mix-blend-mode:passthrough"/></g><g><path d="M352.3828125,4660.470178222657L4057.2128125,4660.470178222657L4057.2128125,977.6201782226562L352.3828125,977.6201782226562L352.3828125,4660.470178222657Z" fill="#FFFFFF" fill-opacity="1" style="mix-blend-mode:passthrough"/></g><g><path d="M948.1806875,3244.999458007813L482.4296875,3244.999458007813L482.4296875,3555.3794580078124L525.2820875,3555.3794580078124C683.9516874999999,3555.3794580078124,808.8686875000001,3585.0494580078125,900.3636875,3644.5094580078126C991.6926874999999,3703.9294580078126,1049.4406875,3799.7094580078124,1073.7616874999999,3931.7394580078126L1423.9616875000002,3931.7394580078126L1423.9616875000002,1594.0694580078125L948.1806875,1594.0694580078125L948.1806875,3244.999458007813Z" fill="#000000" fill-opacity="1" style="mix-blend-mode:passthrough"/></g><g><path d="M1595.758200281,1594.0694580078125C1595.758200281,1697.4144580078125,1606.1777125,1794.3194580078125,1627.0253125,1884.6044580078126C1648.0424125,1974.7884580078126,1679.9704125,2060.7124580078125,1722.9278125,2142.1334580078124C1765.8428125,2223.5874580078125,1819.7788125,2303.3574580078125,1884.8038125,2381.5014580078123C1949.6598125,2459.6204580078124,2025.1718125,2538.331458007812,2111.1458125,2617.6394580078127L2302.7388124999998,2795.889458007812C2355.5148125,2842.1894580078124,2397.9388125,2885.0894580078125,2429.9088125,2924.6994580078126C2461.8028125,2964.2894580078128,2486.5558125,3003.9094580078126,2504.2608125,3043.5894580078125C2521.7958125,3083.179458007812,2533.3758125,3126.1094580078125,2538.9418125,3172.3194580078125C2544.3628125,3218.5394580078128,2547.1758125,3271.3594580078125,2547.1758125,3330.8194580078125C2547.1758125,3524.5594580078123,2470.0108125,3621.3594580078125,2315.9708124999997,3621.3594580078125C2256.4098125,3621.3594580078125,2209.5898125,3609.2894580078128,2175.5018125,3585.0494580078125C2141.3198125,3560.8394580078125,2114.9498125,3527.8294580078127,2096.2538125,3485.9894580078126C2077.4558125,3444.1594580078126,2065.3078125,3395.709458007813,2059.8528125000003,3340.7394580078126C2054.3888125,3285.679458007812,2051.5758125,3227.3094580078123,2051.5758125,3165.6994580078126L1595.7578125,3165.6994580078126L1595.7578125,3254.9194580078124C1595.7578125,3472.7694580078123,1653.9973125,3640.0494580078125,1770.8068125,3756.7894580078123C1887.5148125,3873.4594580078124,2071.4328125,3931.7394580078126,2322.5958124999997,3931.7394580078126C2560.3488125,3931.7394580078126,2736.5578125,3876.7394580078126,2851.1178124999997,3766.7094580078124C2965.7078125,3656.5794580078127,3022.9478125,3499.2294580078124,3022.9478125,3294.5094580078126C3022.9478125,3219.5994580078122,3016.3378125,3149.749458007813,3003.1078125,3084.8294580078127C2989.8678124999997,3019.8494580078122,2968.8578125,2957.679458007812,2940.3878125,2898.2394580078126C2911.6078125,2838.889458007812,2874.2178125,2781.0794580078127,2828.0578125,2724.959458007813C2781.7278125000003,2668.7994580078125,2725.6378125,2611.0194580078123,2659.4578125,2551.5564580078126L2395.2278125000003,2307.2604580078123C2324.7388124999998,2243.331458007812,2269.6498125,2181.1544580078125,2230.0388125,2120.7304580078126C2190.3938125,2060.0524580078127,2165.0818125,2007.7984580078125,2153.9928125,1963.8074580078126L3036.1978125,1963.8074580078126L3036.1978125,1594.0694580078125L1595.758200281,1594.0694580078125Z" fill="#000000" fill-opacity="1" style="mix-blend-mode:passthrough"/></g><g><path d="M583.8563750000001,5571.098037109375L583.8563750000001,4845.738037109375L424.359375,4845.738037109375L424.359375,5571.098037109375L583.8563750000001,5571.098037109375Z" fill="#FFFFFF" fill-opacity="1" style="mix-blend-mode:passthrough"/></g><g><path d="M1501.7590625,5126.117037109375L1410.2620625,5392.340037109375L1408.2800625,5392.340037109375L1313.7410625,5126.117037109375L1501.7590625,5126.117037109375ZM1492.6610625,5571.098037109375L1764.1040625,4845.738037109375L1598.3820624999998,4845.738037109375L1543.4550625,5007.292037109375L1272.1130625,5007.292037109375L1215.1950625,4845.738037109375L1054.5390625,4845.738037109375L1329.0230625,5571.098037109375L1492.6610625,5571.098037109375Z" fill="#FFFFFF" fill-opacity="1" style="mix-blend-mode:passthrough"/></g><g><path d="M2568.2584375,5242.927037109375C2604.8884375,5242.927037109375,2632.3514375,5251.131037109375,2650.5564375,5267.336037109375C2668.9134375,5283.608037109375,2678.0204375,5309.997037109375,2678.0204375,5346.606037109375C2678.0204375,5381.8250371093745,2668.9134375,5407.394037109375,2650.5564375,5423.268037109375C2632.3514375,5439.202037109375,2604.8884375,5447.143037109375,2568.2584375,5447.143037109375L2393.4384375,5447.143037109375L2393.4384375,5242.927037109375L2568.2584375,5242.927037109375ZM2625.2364375,5571.099037109375C2657.6634375,5571.099037109375,2686.9484375,5565.867037109375,2713.0904375,5555.385037109375C2739.2334375,5544.870037109375,2761.5714375,5530.486037109375,2780.2674375,5512.224037109375C2798.8024375,5493.869037109375,2813.0254375,5472.703037109375,2822.9534375,5448.726037109375C2832.7124375,5424.657037109375,2837.6764375000002,5398.6910371093745,2837.6764375000002,5371.014037109375C2837.6764375000002,5328.352037109375,2828.5784375,5291.371037109375,2810.7124375,5260.224037109375C2792.6774375,5229.034037109375,2763.3924375,5205.388037109375,2722.6884375,5189.115037109375L2722.6884375,5187.134037109375C2742.3754375,5181.673037109375,2758.7594375,5173.4100371093755,2771.4994375,5162.167037109375C2784.4014375,5150.983037109375,2794.9904375,5137.861037109375,2803.0974375,5122.545037109375C2811.2044375,5107.331037109375,2817.1594375,5090.567037109375,2820.8024375,5072.280037109375C2824.6054375,5054.018037109375,2827.0874375,5035.731037109375,2828.4174375000002,5017.376037109375C2829.0784375,5005.904037109375,2829.9004375,4992.341037109375,2830.5694375000003,4976.797037109375C2831.2304375,4961.160037109375,2832.3824375,4945.285737109375,2834.0424375000002,4929.013237109375C2835.6944375000003,4912.808737109375,2838.5074375,4897.332237109375,2842.1494375,4882.778737109375C2845.9534375,4868.259037109375,2851.5784375,4855.923537109375,2859.0244375,4845.738553852375L2699.3594375000002,4845.738553852375C2690.5914375,4868.724537109375,2685.1364375,4896.172437109375,2683.1454375,4928.022637109375C2681.1624375,4959.830037109375,2678.0204375,4990.360037109375,2674.0474375,5019.459037109375C2668.5834375,5057.396037109375,2657.0034375,5085.107037109375,2639.4674375,5102.801037109375C2621.7624375,5120.394037109375,2592.9774375,5129.157037109375,2553.0364375,5129.157037109375L2393.4384375,5129.157037109375L2393.4384375,4845.738037109375L2233.7734375,4845.738037109375L2233.7734375,5571.098037109375L2625.2364375,5571.099037109375Z" fill="#FFFFFF" fill-opacity="1" style="mix-blend-mode:passthrough"/></g><g><path d="M3839.9728125,5377.6209609375C3830.4768125,5392.8349609375,3818.6258125,5406.2279609375,3804.3938125,5417.6999609375C3790.1708125,5429.2139609375,3774.0248125,5438.2059609375,3756.0828125,5444.6569609375C3738.1148125,5451.0409609375,3719.3518125,5454.2489609375,3699.6648125,5454.2489609375C3663.7638125,5454.2489609375,3633.2168125,5447.2989609375,3608.1668125,5433.4139609375C3583.0838125,5419.5209609375,3562.7358125,5400.9369609375,3547.1828125,5377.6209609375C3531.5618125,5354.2029609375,3520.2448125,5327.5849609375,3513.1368125,5297.8169609375C3506.0208125,5267.9899609375,3502.4468125,5237.2319609375,3502.4468125,5205.3809609375C3502.4468125,5174.8939609375,3506.0208125,5145.2959609375,3513.1368125,5116.5189609375C3520.2438125,5087.6489609375,3531.5618125,5061.7839609375,3547.1828125,5038.7049609375C3562.7358125,5015.7189609375,3583.0838125,4997.2959609375,3608.1668125,4983.4029609375C3633.2168125,4969.5179609375,3663.7638125,4962.5759609375,3699.6648125,4962.5759609375C3748.4758125,4962.5759609375,3786.6298125,4977.4509609375,3813.9918125,5007.2869609375C3841.4558125,5037.0459609375,3858.2708125,5076.3379609375,3864.3868125,5125.1209609375L4018.8258125,5125.1209609375C4014.7508125,5079.7069609375,4004.2638125,5038.7049609375,3987.3888125,5002.1559609375C3970.4128124999997,4965.6149609375,3948.0148125,4934.4589609375,3920.2798125,4908.7301609375C3892.5198124999997,4882.9333609375,3859.8888125,4863.3590609375,3822.6998125,4849.7961609375C3785.3668125,4836.2414409375,3744.4008125,4829.4599609375,3699.6648125,4829.4599609375C3644.0758125,4829.4599609375,3594.1048125,4839.1199609375,3549.7668125,4858.3978609375C3505.3608125,4877.7433609375,3467.8668125,4904.2683609375,3437.4214125,4938.1679609375C3406.9165125,4971.9989609375,3383.4853125,5011.8499609375,3367.2714125,5057.5509609375C3350.9558925,5103.2949609375,3342.8828125,5152.5689609375,3342.8828125,5205.3819609375005C3342.8828125,5259.5579609375,3350.9558925,5309.8219609375,3367.2714125,5356.1919609375C3383.4853125,5402.5879609375,3406.9165125,5443.0989609375,3437.4214125,5477.6579609375C3467.8668125,5512.2179609375,3505.3608125,5539.2419609375,3549.7668125,5558.9179609375C3594.1048125,5578.5259609375,3644.0758125,5588.3559609375,3699.6648125,5588.3559609375C3739.6398125,5588.3559609375,3777.4298125,5582.6659609375,3813.0008125,5571.0929609375C3848.5708125,5559.5789609375,3880.4058125,5542.8149609375,3908.5308125,5520.8199609375C3936.6968125,5498.8239609375,3959.9248125,5471.5459609375,3978.2228125,5439.0349609375C3996.4868125000003,5406.5589609375,4008.0078125,5369.2559609375,4012.7688125,5327.2549609375L3858.2708125,5327.2549609375C3855.5258125,5345.5419609375,3849.4018125000002,5362.3049609375,3839.9728125,5377.6209609375Z" fill="#FFFFFF" fill-opacity="1" style="mix-blend-mode:passthrough"/></g><g><path d="M2962.546875,2154.9645625L2962.546875,2408.2935625L3303.283875,2408.2935625L3303.283875,2798.3765625L3524.492875,2798.3765625L3524.492875,2408.2935625L3865.263875,2408.2935625L3865.263875,2154.9645625L3524.492875,2154.9645625L3524.492875,1764.7265625L3303.283875,1764.7265625L3303.283875,2154.9645625L2962.546875,2154.9645625Z" fill="#000000" fill-opacity="1" style="mix-blend-mode:passthrough"/></g><g><path d="M3921.2379375,1098.3292864467905L3874.5789375,1098.3292864467905L3874.5789375,1313.2942541503905L3873.1889375,1313.2942541503905L3793.2379375,1098.3292541503906L3755.2869375,1098.3292541503906L3679.3429375,1313.2942541503905L3677.9539375,1313.2942541503905L3677.9539375,1098.3292864467905L3631.2939375,1098.3292864467905L3631.2939375,1371.2352541503906L3705.3159375,1371.2352541503906L3777.2279375,1168.2753541503907L3778.6169375,1168.2753541503907L3848.5979375,1371.2352541503906L3921.2379375,1371.2352541503906L3921.2379375,1098.3292864467905ZM3598.0019375,1371.2352541503906L3598.0019375,1335.9482541503905L3518.6859375,1335.9482541503905L3518.6859375,1098.3292864467905L3472.0268375,1098.3292864467905L3472.0268375,1335.9482541503905L3392.7109375,1335.9482541503905L3392.7109375,1371.2352541503906L3598.0019375,1371.2352541503906Z" fill="#000000" fill-opacity="1" style="mix-blend-mode:passthrough"/></g></g></g></g><g><g><path d="M789.9,417.4L803.7,412.9Q807.3,411.4,809.4,407.8Q811.5,404.2,811.5,400.3L811.5,328L791.1,328L791.1,276.1L829.8,276.1Q823.5,268.6,813.3,258.1Q800.7,245.2,786.6,232.3L823.8,196.6Q835.8,205.3,851.4,220.9Q860.4,230.5,877.2,250L846.6,276.1L861.3,276.1L861.3,396.1Q868.2,402.7,885.6,408.55Q903,414.4,925.8,415.3Q952.8,416.8,990,415.3Q1027.2,413.8,1061.4,410.8L1056.9,462.7Q1004.4,465.1,932.4,465.1Q908.4,463,889.95,459.4Q871.5,455.8,857.7,449.2L809.1,467.2L789.9,417.4ZM995.1,365.8L995.1,355.6L931.8,355.6L931.8,365.8L995.1,365.8ZM876.6,312.4L936.3,312.4L936.3,304.3L866.1,304.3L866.1,260.8L936.3,260.8L936.3,252.4Q906.3,253.3,879.3,253.3L870.3,208.6Q881.4,208.6,916.8,207.1Q952.2,205.6,978.9,202.9Q1020.3,198.4,1041.3,192.4L1058.4,238.3Q1044.3,241.9,1030.2,244.3Q1016.1,246.7,993,249.1L990.3,249.4L990.3,260.8L1060.5,260.8L1060.5,304.3L990.3,304.3L990.3,312.4L1050.3,312.4L1050.3,405.1L876.6,405.1L876.6,312.4ZM1333.2,472Q1333.2,472,1314.3,463.45Q1295.4,454.9,1272,445.9L1218.3,424.9L1218.3,466.3L1086,466.3L1086,329.8L1123.5,329.8L1123.5,362.2Q1128,352.9,1129.8,348.1Q1135.5,333.1,1138.8,320.2L1084.2,320.2L1084.2,271.6L1095.9,271.6L1095.9,207.1L1133.4,207.1L1133.4,271.6L1140,271.6L1140,193.9L1185.6,193.9L1185.6,211.9L1213.8,211.9L1213.8,258.1L1185.6,258.1L1185.6,271.6L1201.2,271.6L1200,269.5Q1213.2,259.6,1220.7,252.7Q1228.2,245.8,1237.8,231.1Q1251.6,211.9,1260.6,191.5L1305,191.5L1308,196.9Q1313.7,208,1318.95,216.7Q1324.2,225.4,1331.1,232Q1339.8,243.1,1345.95,249.1Q1352.1,255.1,1358.7,260.8L1363.8,265L1349.7,316.9L1356.9,316.9L1356.9,376L1334.7,411.7L1351.5,418.6L1333.2,472ZM1180.5,421L1180.5,409.6L1174.8,415.6Q1170.3,409.9,1152.9,393.7Q1146.6,406.9,1141.5,416.5L1123.5,407.5L1123.5,421L1180.5,421ZM1236.6,373.6Q1237.2,374.2,1247.7,377.8Q1270.5,385.6,1288.5,392.8L1289.1,393.1L1307.7,368.8L1225.5,368.8L1225.5,316.9L1266.3,316.9L1264.8,314.8Q1257,303.1,1250.7,296.5L1286.1,262.6L1290,267.1Q1299.6,277.9,1303.2,284.2Q1315.5,302.5,1318.5,307.9L1307.7,316.9L1345.8,316.9Q1335,308.8,1327.8,301.75Q1320.6,294.7,1305.9,277.6Q1300.5,270.7,1289.1,254.8L1284,247.9Q1275.6,261.4,1263,275.2Q1244.7,294.4,1237.5,301.3Q1230.3,308.2,1223.7,313.3L1217.1,301L1217.1,320.2L1157.4,320.2L1177.2,325.6Q1176.6,328.6,1174.2,337Q1171.8,345.4,1167.9,356.2L1177.5,364.3L1180.5,367.3L1180.5,329.8L1218.3,329.8L1218.3,419.2L1236.6,373.6ZM1469.7,456.4L1471.5,450.7Q1479.9,427.3,1482.9,414.1Q1489.8,385,1492.8,363.7L1538.4,368.2Q1535.1,394.3,1534.2,401.5Q1538.1,404.5,1546.5,410.5L1553.4,413.8L1553.4,357.7L1483.2,357.7L1483.5,369.4Q1482.9,369.4,1476.9,371.2Q1467.6,373.6,1461.9,375.1L1461.9,439Q1461.9,451,1453.95,459.25Q1446,467.5,1434.6,467.5L1396.5,467.5L1386,412.9Q1389,415,1391.55,415.9Q1394.1,416.8,1398.9,417.7Q1404.3,417.7,1407.6,414.25Q1410.9,410.8,1410.9,406.3L1410.9,380.5Q1398.9,380.8,1388.1,380.8L1387.2,324.7Q1398.6,325.9,1410.9,325.3L1410.9,286.9L1387.2,286.9L1387.2,232L1410.9,232L1410.9,196.9L1461.9,196.9L1461.9,232L1481.1,232L1481.1,286.9L1461.9,286.9L1461.9,319.6Q1475.7,316.9,1482.3,314.8L1482.3,317.2L1656.3,317.2L1656.3,357.7L1607.7,357.7L1607.7,366.7L1647.9,366.7L1647.9,408.7L1607.7,408.7L1607.7,420.1Q1621.8,420.4,1642.5,419.5Q1655.1,418.9,1662,418.9L1657.5,468.4L1587.6,468.4Q1571.7,468.4,1557.45,464.35Q1543.2,460.3,1527,450.4L1524,448.6Q1521,457,1518.75,462.7Q1516.5,468.4,1515.9,470.5L1469.7,456.4ZM1599.6,273.4L1599.6,268L1535.1,268L1535.1,273.4L1599.6,273.4ZM1489.5,193.9L1644.9,193.9L1644.9,309.4L1489.5,309.4L1489.5,193.9ZM1599.6,235L1599.6,229.3L1535.1,229.3L1535.1,235L1599.6,235ZM1776.6,467.2L1762.2,418Q1749.9,440.2,1738.2,457.3L1683.9,421.9Q1699.5,403.9,1712.4,380.95Q1725.3,358,1734,333.7L1789.5,358.9Q1781.7,381.1,1766.4,409.9Q1782,412.3,1792.5,412.3Q1797,412.3,1800.75,409Q1804.5,405.7,1804.5,401.2L1804.5,329.5L1693.5,329.5L1693.5,270.7L1956,270.7L1956,329.5L1864.5,329.5L1864.5,437.2Q1864.5,449.5,1854.9,458.35Q1845.3,467.2,1831.5,467.2L1776.6,467.2ZM1902,447.1Q1893.3,417.4,1886.4,400.45Q1879.5,383.5,1864.5,357.7L1919.1,335.2Q1947,379.3,1964.1,437.8L1905.9,460.6L1902,447.1ZM1722.3,197.8L1929.9,197.8L1929.9,254.5L1722.3,254.5L1722.3,197.8Z" fill="#FFFFFF" fill-opacity="1"/></g><g><path d="M907.016,566.08L907.016,586.528L916.376,586.528L916.376,601.936L907.016,601.936L907.016,622.24L874.76,622.24L874.76,628.144L908.6,628.144L908.6,643.12L874.76,643.12L874.76,648.88L912.056,648.88L912.056,663.712L874.76,663.712L874.76,668.896L855.896,668.896L855.896,663.712L826.808,663.712L826.808,648.88L855.896,648.88L855.896,643.12L830.84,643.12L830.84,628.144L855.896,628.144L855.896,622.24L831.272,622.24L831.272,607.984L855.896,607.984L855.896,601.936L827.096,601.936L827.096,586.528L855.896,586.528L855.896,580.624L831.4159999999999,580.624L831.4159999999999,566.08L855.896,566.08L855.896,560.752L874.76,560.752L874.76,566.08L907.016,566.08ZM817.88,661.264Q822.488,665.5840000000001,828.032,667.6Q833.576,669.616,839.84,670.192Q846.104,670.768,855.896,670.768L915.8,670.768L912.7760000000001,689.2L855.608,689.2Q840.488,689.2,829.4,686.4639999999999Q818.312,683.7280000000001,809.528,676.528Q805.064,683.5840000000001,797.144,693.088L784.472,676.672Q792.68,670.048,797.576,662.2719999999999Q790.232,650.608,785.048,632.3199999999999L799.592,626.4159999999999Q802.328,635.2,805.928,643.12Q808.088,634.768,809.816,622.096L787.64,622.096L787.64,605.392L806.936,581.488L787.352,581.488L787.352,564.496L827.384,564.496L827.384,581.776L809.384,605.104L827.528,605.104L827.528,621.664Q825.8,634.624,823.712,643.768Q821.624,652.912,817.88,661.264ZM888.44,580.624L874.76,580.624L874.76,586.528L888.44,586.528L888.44,580.624ZM874.76,607.984L888.44,607.984L888.44,601.936L874.76,601.936L874.76,607.984ZM1008.5360000000001,601.792Q1005.512,594.88,1000.76,584.944Q996.008,575.008,992.84,569.248L1010.408,560.032L1018.616,575.872L1026.824,591.712L1008.5360000000001,601.792ZM954.392,597.76Q951.3679999999999,593.008,945.6800000000001,584.872Q939.992,576.736,936.392,572.128L951.656,561.04L956.84,568.096Q969.8,585.808,969.8,585.808L954.392,597.76ZM1051.4479999999999,693.088Q1029.56,680.992,1015.016,667.312Q1000.76,680.992,975.2719999999999,693.808L964.184,676.096L952.952,685.888L940.424,672.208Q941.864,669.904,942.2239999999999,667.528Q942.5840000000001,665.152,942.5840000000001,661.12L942.5840000000001,621.52L930.344,621.52L930.344,601.936L961.736,601.936L961.736,653.488L973.256,643.264L979.592,662.56L965.048,675.232Q988.088,663.712,1000.904,651.904Q990.104,638.08,982.544,620.5840000000001Q974.984,603.088,970.088,580.48L988.664,574.288Q992.408,593.44,998.6,608.848Q1004.792,624.256,1014.296,636.784Q1022.072,625.408,1026.608,610.072Q1031.144,594.736,1034.744,571.408L1054.472,575.872Q1049.144,603.088,1043.096,620.944Q1037.048,638.8,1028.12,651.904Q1042.232,664.72,1061.96,674.2239999999999L1051.4479999999999,693.088ZM1124.024,684.592L1098.824,684.592L1098.824,596.896L1073.48,610L1073.48,583.792L1102.856,568.672L1124.024,568.672L1124.024,684.592ZM1184.936,660.976L1225.976,660.976L1225.976,684.592L1146.632,684.592L1146.632,667.744L1182.2,629.728Q1191.416,619.792,1194.656,613.816Q1197.896,607.84,1197.896,601.936Q1197.896,596.752,1194.296,593.296Q1190.696,589.84,1184.936,589.84Q1178.888,589.84,1174.064,594.16Q1169.24,598.48,1167.08,605.968L1144.616,596.752Q1148.504,582.928,1159.592,574.864Q1170.68,566.8,1185.8,566.656Q1196.7440000000001,566.656,1205.384,571.12Q1214.024,575.5840000000001,1218.848,583.504Q1223.672,591.424,1223.672,601.504Q1223.672,611.44,1218.632,621.016Q1213.592,630.592,1202.216,642.688L1184.936,660.976ZM1249.7359999999999,564.064L1362.92,564.064L1362.92,671.92Q1362.92,680.4159999999999,1360.8319999999999,684.736Q1358.7440000000001,689.056,1354.136,690.64Q1349.528,692.2239999999999,1340.6,692.2239999999999L1324.76,692.2239999999999L1321.304,676.672L1337.72,676.672Q1340.312,676.672,1341.464,675.736Q1342.616,674.8,1342.904,672.352Q1343.192,669.904,1343.192,664L1343.624,581.92L1269.464,581.92L1269.464,621.808Q1269.464,641.104,1268.24,652.552Q1267.016,664,1263.848,673.288Q1260.68,682.576,1254.056,694.24L1236.776,679.696Q1242.68,670.624,1245.344,663.352Q1248.008,656.08,1248.872,645.568Q1249.7359999999999,635.056,1249.7359999999999,614.4639999999999L1249.7359999999999,564.064ZM1272.92,628.144L1272.92,612.16L1296.824,612.16L1296.824,606.112L1276.52,606.112L1276.52,590.128L1296.824,590.128L1296.824,584.08L1316.2640000000001,584.08L1316.2640000000001,590.128L1336.424,590.128L1336.424,606.112L1316.2640000000001,606.112L1316.2640000000001,612.16L1340.4560000000001,612.16L1340.4560000000001,628.144L1272.92,628.144ZM1277.096,634.48L1334.984,634.48L1334.984,672.928L1277.096,672.928L1277.096,634.48ZM1295.096,658.24L1317.272,658.24L1317.272,649.024L1295.096,649.024L1295.096,658.24ZM1504.76,603.088L1449.608,603.088Q1445.576,608.704,1440.104,615.472L1500.44,615.472L1500.44,633.328Q1489.496,652.192,1464.512,667.312Q1439.528,682.432,1396.472,694.096L1385.384,674.3679999999999Q1412.024,668.608,1431.752,660.688Q1415.624,651.328,1406.8400000000001,646.576Q1402.088,650.032,1394.4560000000001,654.928L1382.9360000000001,637.936Q1408.856,622.384,1425.704,603.088L1391.576,603.088L1391.576,567.088L1411.304,567.088L1411.304,585.232L1438.232,585.232L1438.232,559.888L1458.104,559.888L1458.104,585.232L1485.0320000000002,585.232L1485.0320000000002,567.232L1504.76,567.232L1504.76,603.088ZM1437.944,657.952Q1462.856,646.864,1474.232,633.328L1423.112,633.328L1422.536,633.904Q1438.808,641.968,1445.576,645.568L1437.944,657.952ZM1587.992,609.28Q1583.96,601.504,1577.192,589.84Q1570.424,578.176,1565.816,570.688L1581.656,560.4639999999999Q1585.8319999999999,567.088,1592.816,578.608Q1599.8,590.128,1604.8400000000001,598.768L1587.992,609.28ZM1642.856,689.6320000000001Q1637.816,683.008,1624.568,667.024L1621.688,663.568Q1615.784,671.488,1607.0720000000001,678.904Q1598.3600000000001,686.3199999999999,1585.688,694.384L1573.7359999999999,676.672Q1591.016,666.304,1600.4479999999999,655.792Q1609.88,645.28,1614.1280000000002,632.176Q1618.376,619.072,1619.96,599.344Q1620.6799999999998,592,1620.824,562.624L1640.8400000000001,562.624L1640.984,575.296Q1640.984,592.576,1640.2640000000001,600.928Q1639.112,614.608,1637.24,625.048Q1635.368,635.488,1632.2,643.984Q1632.92,644.992,1633.784,645.928Q1634.6480000000001,646.864,1635.512,647.872Q1647.0320000000002,661.12,1658.2640000000001,674.3679999999999L1642.856,689.6320000000001ZM1584.392,625.12L1590.44,649.6L1544.0720000000001,689.056L1531.4,669.328Q1533.848,667.312,1534.3519999999999,665.5840000000001Q1534.856,663.856,1534.856,660.4L1534.856,564.64L1556.024,564.64L1556.024,650.752L1584.392,625.12ZM1742.9360000000001,617.776L1742.9360000000001,666.16L1799.38,666.16L1799.38,687.616L1672.376,687.616L1672.376,666.16L1719.608,666.16L1719.608,558.736L1742.9360000000001,558.736L1742.9360000000001,597.904L1792.04,597.904L1792.04,617.776L1742.9360000000001,617.776ZM1825.88,564.928L1938.2,564.928L1938.2,672.784Q1938.2,680.1279999999999,1936.33,684.232Q1934.46,688.336,1930.14,690.136Q1925.82,691.936,1918.04,691.936L1901.05,691.936L1897.45,672.352L1910.55,672.352Q1914.01,672.352,1915.45,671.92Q1916.89,671.488,1917.25,670.336Q1917.61,669.184,1917.61,666.304L1917.61,655.36L1891.83,655.36L1891.83,688.192L1870.95,688.192L1870.95,655.36L1846.04,655.36Q1844.89,666.16,1841.94,675.232Q1838.98,684.304,1833.22,693.952L1814.5,683.44Q1820.12,673.072,1822.35,666.736Q1824.58,660.4,1825.23,651.976Q1825.88,643.552,1825.88,625.552L1825.88,564.928ZM1870.95,600.496L1870.95,585.088L1846.9,585.088L1846.9,600.496L1870.95,600.496ZM1891.83,600.496L1917.61,600.496L1917.61,585.088L1891.83,585.088L1891.83,600.496ZM1846.9,635.776L1870.95,635.776L1870.95,620.224L1846.9,620.224L1846.9,632.752L1846.9,635.776ZM1891.83,620.224L1891.83,635.776L1917.61,635.776L1917.61,620.224L1891.83,620.224ZM2082.92,576.448L2082.92,642.112L1991.62,642.112Q1990.47,658.24,1986.73,669.328Q1982.98,680.4159999999999,1974.49,693.088L1957.64,678.544Q1963.11,670.048,1965.85,662.92Q1968.58,655.792,1969.66,645.784Q1970.74,635.776,1970.74,618.352L1970.74,576.448L2016.39,576.448L2010.49,560.896L2033.53,557.872L2039.58,576.448L2082.92,576.448ZM1992.34,621.088L2061.0299999999997,621.088L2061.0299999999997,597.184L1992.34,597.184L1992.34,614.176L1992.34,621.088ZM2226.63,691.648Q2196.9700000000003,687.04,2178.6800000000003,678.4Q2173.06,682.72,2165,686.3199999999999Q2156.94,689.92,2145.56,693.52L2136.34,675.664Q2151.6099999999997,671.6320000000001,2160.1,667.168Q2151.9,660.544,2145.27,651.904L2155.06,643.984L2142.9700000000003,643.984L2142.9700000000003,598.48L2176.52,598.48L2176.52,589.696L2141.24,589.696L2141.24,572.704Q2137.9300000000003,584.656,2134.4700000000003,593.5840000000001L2134.4700000000003,692.512L2115.9,692.512L2115.9,630.88Q2111,638.656,2106.54,644.848L2102.3599999999997,617.488Q2107.26,610,2113.59,593.44Q2119.9300000000003,576.88,2124.8199999999997,559.168L2143.54,563.776L2141.38,571.984L2176.52,571.984L2176.52,560.032L2195.5299999999997,560.032L2195.5299999999997,571.984L2230.66,571.984L2230.66,589.696L2195.5299999999997,589.696L2195.5299999999997,598.48L2228.2200000000003,598.48L2228.2200000000003,643.984L2195.24,643.984Q2194.66,655.36,2190.92,663.568Q2207.48,669.472,2231.8199999999997,671.2L2226.63,691.648ZM2176.52,615.184L2160.8199999999997,615.184L2160.8199999999997,626.848L2176.52,626.848L2176.52,615.184ZM2210.2200000000003,626.848L2210.2200000000003,615.184L2195.5299999999997,615.184L2195.5299999999997,626.848L2210.2200000000003,626.848ZM2161.1099999999997,643.984Q2166.73,650.3199999999999,2173.5,654.784Q2175.8,650.176,2176.23,643.984L2161.1099999999997,643.984ZM2257.88,564.928L2370.2,564.928L2370.2,672.784Q2370.2,680.1279999999999,2368.33,684.232Q2366.46,688.336,2362.1400000000003,690.136Q2357.8199999999997,691.936,2350.04,691.936L2333.05,691.936L2329.45,672.352L2342.55,672.352Q2346.01,672.352,2347.45,671.92Q2348.8900000000003,671.488,2349.25,670.336Q2349.6099999999997,669.184,2349.6099999999997,666.304L2349.6099999999997,655.36L2323.83,655.36L2323.83,688.192L2302.95,688.192L2302.95,655.36L2278.04,655.36Q2276.8900000000003,666.16,2273.94,675.232Q2270.98,684.304,2265.2200000000003,693.952L2246.5,683.44Q2252.12,673.072,2254.35,666.736Q2256.58,660.4,2257.23,651.976Q2257.88,643.552,2257.88,625.552L2257.88,564.928ZM2302.95,600.496L2302.95,585.088L2278.9,585.088L2278.9,600.496L2302.95,600.496ZM2323.83,600.496L2349.6099999999997,600.496L2349.6099999999997,585.088L2323.83,585.088L2323.83,600.496ZM2278.9,635.776L2302.95,635.776L2302.95,620.224L2278.9,620.224L2278.9,632.752L2278.9,635.776ZM2323.83,620.224L2323.83,635.776L2349.6099999999997,635.776L2349.6099999999997,620.224L2323.83,620.224Z" fill="#FFFFFF" fill-opacity="1"/></g></g><g><g><rect x="2747" y="89" width="215" height="215" rx="64" fill="#000000" fill-opacity="1" style="mix-blend-mode:passthrough"/></g><g><g><g><path d="M2797.902673184204,151.91317924438476C2804.651273184204,149.02133124438475,2812.160373184204,150.08009424438475,2819.289073184204,149.85886084438476C2844.319373184204,148.13638924438476,2865.135373184204,172.72501924438475,2864.723173184204,196.64991924438476C2865.198473184204,222.70821924438476,2840.279673184204,245.10031924438476,2814.536573184204,243.74091924438477C2801.387873184204,243.63031924438476,2789.1104731842042,237.18311924438478,2780.3341731842042,227.62281924438477C2768.484492184204,216.29261924438475,2765.838913184204,197.92991924438476,2770.163723184204,182.64891924438476C2773.839023184204,168.72701924438476,2784.817373184204,157.52305924438477,2797.902673184204,151.91317924438476ZM2813.823673184204,157.85490924438477C2810.417673184204,163.76501924438477,2808.469173184204,170.30721924438475,2807.043373184204,176.92841924438477C2813.0949731842043,177.29191924438476,2819.146573184204,177.27611924438477,2825.1981731842043,176.88101924438476C2824.279273184204,170.13341924438475,2822.6475731842042,163.33831924438476,2818.449573184204,157.82331924438478C2816.9128731842043,157.83908924438475,2815.360373184204,157.85490924438477,2813.823673184204,157.85490924438477ZM2781.110373184204,176.94431924438476C2786.971873184204,177.37091924438477,2792.880873184204,177.46571924438476,2798.694773184204,176.58081924438477C2800.168073184204,170.63911924438477,2801.989873184204,164.76051924438477,2803.193873184204,158.75561924438477C2793.863073184204,161.85291924438476,2785.7995731842043,168.26871924438476,2781.110373184204,176.94431924438476ZM2829.2062731842043,158.86626924438477C2830.3150731842043,165.04501924438478,2832.200273184204,171.04991924438477,2834.386373184204,176.92841924438477C2839.9625731842043,177.26031924438476,2845.554873184204,177.27611924438477,2851.1311731842043,176.84941924438476C2846.4418731842043,168.36351924438478,2838.647973184204,161.52111924438478,2829.2062731842043,158.86626924438477ZM2777.292503184204,186.40991924438475C2776.738093184204,192.88891924438477,2776.769743184204,199.41531924438476,2777.197503184204,205.89431924438477C2783.771773184204,206.96891924438478,2790.457073184204,206.93731924438475,2797.0630731842043,206.13131924438477C2797.918573184204,199.54171924438475,2797.934373184204,192.87311924438478,2797.0313731842043,186.29931924438478C2790.457073184204,186.04641924438477,2783.866873184204,185.98331924438477,2777.292503184204,186.40991924438475ZM2805.8710731842043,186.39411924438477C2805.538473184204,193.17331924438477,2805.5859731842042,199.96841924438476,2806.013673184204,206.74771924438477C2812.714773184204,206.77931924438477,2819.431673184204,206.77931924438477,2826.148673184204,206.58961924438478C2826.6394731842042,199.85771924438478,2826.6239731842043,193.11011924438475,2826.370573184204,186.37831924438476C2819.5425731842042,186.01481924438477,2812.698973184204,186.04641924438477,2805.8710731842043,186.39411924438477ZM2835.970473184204,186.47311924438478C2835.511273184204,193.12601924438476,2835.4951731842043,199.81041924438478,2836.065673184204,206.46321924438476C2842.481273184204,206.82671924438478,2848.944973184204,206.90571924438476,2855.345173184204,206.08391924438476C2856.453973184204,199.54171924438475,2857.1511731842043,192.66771924438476,2854.505173184204,186.37831924438476C2848.3269731842042,186.07801924438476,2842.148773184204,186.04641924438477,2835.970473184204,186.47311924438478ZM2806.9166731842042,214.79101924438476C2808.421673184204,222.37621924438477,2810.116673184204,230.59381924438475,2816.136673184204,236.01351924438478C2822.631773184204,230.97281924438477,2823.867373184204,222.40781924438477,2825.245673184204,214.85411924438478C2819.146573184204,214.56971924438477,2813.031673184204,214.53821924438478,2806.9166731842042,214.79101924438476ZM2834.386373184204,214.94921924438478C2832.152673184204,221.23871924438475,2830.3305731842042,227.68591924438476,2828.9998731842043,234.22821924438477C2837.744973184204,229.66101924438476,2846.885573184204,224.14611924438475,2851.273873184204,214.90171924438476C2845.6500731842043,214.55421924438477,2840.010173184204,214.58581924438477,2834.386373184204,214.94921924438478ZM2782.187673184204,215.02841924438476C2785.102473184204,223.97241924438475,2793.356073184204,229.20291924438476,2801.7680731842042,232.31611924438477C2801.1185731842043,226.75361924438477,2800.215573184204,221.15961924438477,2798.171973184204,215.92911924438476C2793.3085731842043,213.51131924438477,2787.447073184204,214.99631924438478,2782.187673184204,215.02841924438476Z" fill="#FDFBFB" fill-opacity="1" style="mix-blend-mode:passthrough"/></g></g><g><g><path d="M2860.2722312335204,160.19364889150262C2867.3852312335207,154.26777889150262,2876.2883112335203,149.6376708915026,2885.7933112335204,149.9063118915026C2894.9975112335205,150.0959418915026,2904.9619112335204,148.4840888915026,2913.3581112335205,153.25642889150262C2927.0139112335205,159.7354288915026,2936.3920112335204,173.00944889150261,2940.1146112335205,187.38974889150262C2942.3483112335207,200.2687488915026,2938.9427112335206,213.98504889150263,2930.9900112335204,224.3515488915026C2925.8730112335206,230.2299488915026,2920.1385112335206,235.90304889150264,2913.1046112335207,239.4588488915026C2902.7916112335206,243.66194889150262,2891.0370112335204,245.28964889150262,2880.1853112335207,242.1609488915026C2871.7259112335205,239.7747488915026,2863.0445512335205,235.8875488915026,2857.8959642335203,228.42844889150263C2858.3395422335207,227.24344889150262,2859.1949912335203,224.9047488915026,2859.6385612335207,223.7197488915026C2866.8465812335203,225.07854889150263,2871.8209112335203,231.2097488915026,2878.7913112335204,233.3431488915026C2877.6982112335204,227.43314889150264,2876.1616112335205,221.6178488915026,2874.6090112335205,215.8180488915026C2872.1060112335203,214.8703488915026,2869.6030112335206,213.90594889150262,2867.1158712335205,212.95824889150262C2866.4505312335205,208.6599488915026,2870.3952112335205,206.66874889150262,2872.9457112335203,204.01394889150262C2874.2605112335204,199.22574889150263,2873.7536112335206,194.02674889150262,2873.1675112335206,189.15954889150262C2870.8704112335204,185.7936488915026,2867.3059912335207,183.39164889150263,2865.6584712335207,179.55174889150263C2868.6209112335205,178.27164889150262,2871.6466112335206,177.1181488915026,2874.6883112335204,176.0119488915026C2876.3041112335204,170.29144889150263,2877.8566112335207,164.55514889150263,2879.0130112335205,158.7240688915026C2872.8506112335203,161.36304889150261,2867.2901712335206,165.13984889150262,2861.8564112335207,169.01144889150262C2860.4464912335206,167.98434889150263,2859.0207312335206,166.9571488915026,2857.6108112335205,165.9457488915026C2857.9593292335203,163.8124488915026,2858.3712202335205,161.5211488915026,2860.2722312335204,160.19364889150262ZM2889.7696112335207,157.91812889150262C2886.1102112335207,163.7018488915026,2884.1458112335204,170.29144889150263,2882.9577112335205,176.9759488915026C2889.1043112335205,177.2919488915026,2895.2509112335206,177.2919488915026,2901.3975112335206,176.9443488915026C2900.0668112335206,170.00704889150262,2897.8489112335205,163.1171488915026,2893.3024112335206,157.57051889150262C2892.4152112335205,157.64952889150263,2890.6568112335203,157.8391288915026,2889.7696112335207,157.91812889150262ZM2905.2471112335206,158.8188988915026C2906.4669112335205,164.9818488915026,2908.0035112335204,171.08154889150262,2910.0630112335207,177.02334889150262C2915.7502112335205,177.30774889150263,2921.4532112335205,177.3235488915026,2927.1407112335205,176.89684889150263C2922.5465112335205,168.2371488915026,2914.4195112335206,162.04254889150263,2905.2471112335206,158.8188988915026ZM2882.5141112335205,186.2045488915026C2881.4685112335205,192.92054889150262,2881.6111112335207,199.73134889150262,2882.3557112335207,206.46324889150262C2888.8825112335203,206.85834889150263,2895.4410112335204,206.84254889150262,2901.9678112335205,206.4158488915026C2902.6332112335203,199.69984889150263,2902.7916112335206,192.92054889150262,2901.8094112335207,186.22034889150262C2895.3776112335204,186.0306488915026,2888.9459112335203,186.01494889150263,2882.5141112335205,186.2045488915026ZM2910.6333112335205,186.39414889150262C2910.6175112335204,192.8415488915026,2910.6016112335205,199.28894889150263,2910.6016112335205,205.73634889150262C2917.6514112335203,206.98474889150262,2925.1443112335205,207.68014889150263,2931.9882112335204,205.05684889150263C2932.1940112335205,199.3995488915026,2932.8121112335207,193.6948488915026,2932.0358112335207,188.0692488915026C2931.0691112335203,186.9314488915026,2929.8176112335204,186.3467488915026,2928.2971112335204,186.3467488915026C2922.4198112335207,185.76204889150262,2916.5105112335204,186.1255488915026,2910.6333112335205,186.39414889150262ZM2882.9735112335206,214.79114889150262C2884.2567112335205,222.3603488915026,2886.0152112335204,230.56184889150262,2892.1459112335206,235.80844889150262C2898.0391112335205,230.40424889150262,2900.2728112335203,222.5025488915026,2901.4134112335205,214.83874889150263C2895.2668112335205,214.63294889150262,2889.1201112335207,214.60144889150263,2882.9735112335206,214.79114889150262ZM2909.5719112335205,215.09164889150262C2908.1937112335204,221.68094889150262,2906.5778112335206,228.22324889150264,2904.0114112335204,234.46514889150262C2913.2630112335205,230.0877488915026,2922.7048112335206,224.41454889150262,2927.3304112335204,214.8857488915026C2921.4056112335206,214.5383488915026,2915.4808112335204,214.55384889150264,2909.5719112335205,215.09164889150262Z" fill="#FDFBFB" fill-opacity="1" style="mix-blend-mode:passthrough"/></g></g></g><g><rect x="2748.43393266201" y="90.43333780765533" width="212.13331604003906" height="212.13331604003906" rx="61.5" fill-opacity="0" stroke-opacity="1" stroke="#FFFFFF" fill="none" stroke-width="5" style="mix-blend-mode:passthrough"/></g></g></g></svg>