<svg xmlns="http://www.w3.org/2000/svg" xmlns:xlink="http://www.w3.org/1999/xlink" fill="none" version="1.1" width="375" height="375" viewBox="0 0 375 375"><defs><clipPath id="master_svg0_12_014"><rect x="0" y="0" width="375" height="375" rx="64"/></clipPath></defs><g clip-path="url(#master_svg0_12_014)"><rect x="0" y="0" width="375" height="375" rx="64" fill="#000000" fill-opacity="1"/><g><g><path d="M88.78370000000001,109.73231C100.55449999999999,104.68839,113.6517,106.535075,126.0856,106.149201C169.743,103.1449,206.05,146.03199999999998,205.331,187.7615C206.16,233.212,162.697,272.26800000000003,117.7963,269.897C94.8625,269.704,73.4485,258.459,58.1409,241.784C37.472885,222.022,32.8585,189.994,40.40178,163.34120000000001C46.81218,139.0587,65.9605,119.517,88.78370000000001,109.73231ZM116.5529,120.0958C110.6122,130.4041,107.2136,141.8149,104.7268,153.3636C115.2819,153.9975,125.8369,153.97,136.392,153.2809C134.7894,141.5118,131.9434,129.6599,124.6212,120.0407C121.941,120.0682,119.2331,120.0958,116.5529,120.0958ZM59.4948,153.3912C69.7183,154.1353,80.0247,154.3007,90.1653,152.7572C92.735,142.3938,95.9125,132.1405,98.0125,121.6668C81.7378,127.06909999999999,67.6736,138.2594,59.4948,153.3912ZM143.38299999999998,121.8598C145.317,132.6367,148.60500000000002,143.1104,152.418,153.3636C162.144,153.9424,171.898,153.97,181.624,153.2258C173.445,138.4248,159.851,126.4903,143.38299999999998,121.8598ZM52.8357,169.901C51.868700000000004,181.20159999999998,51.9239,192.5849,52.67,203.88549999999998C64.1368,205.7597,75.7971,205.7046,87.3193,204.2989C88.81139999999999,192.80540000000002,88.839,181.1741,87.26400000000001,169.7081C75.7971,169.2671,64.3026,169.1569,52.8357,169.901ZM102.6821,169.8735C102.1019,181.6977,102.1848,193.5496,102.9308,205.3739C114.6187,205.429,126.3343,205.429,138.05,205.09820000000002C138.906,193.35660000000001,138.87900000000002,181.5875,138.437,169.8459C126.5277,169.212,114.5911,169.2671,102.6821,169.8735ZM155.18099999999998,170.0113C154.38,181.61509999999998,154.352,193.274,155.34699999999998,204.8777C166.537,205.51170000000002,177.811,205.6495,188.974,204.21620000000001C190.908,192.80540000000002,192.124,180.8158,187.509,169.8459C176.733,169.3222,165.957,169.2671,155.18099999999998,170.0113ZM104.5058,219.40300000000002C107.1307,232.63299999999998,110.0872,246.966,120.5871,256.419C131.9158,247.627,134.071,232.688,136.4749,219.513C125.8369,219.017,115.1714,218.962,104.5058,219.40300000000002ZM152.418,219.679C148.522,230.649,145.344,241.894,143.023,253.305C158.276,245.339,174.219,235.72,181.873,219.596C172.064,218.99,162.227,219.04500000000002,152.418,219.679ZM61.3737,219.817C66.45779999999999,235.417,80.8536,244.54,95.5257,249.97C94.3928,240.268,92.8178,230.511,89.2534,221.388C80.7707,217.171,70.5472,219.761,61.3737,219.817Z" fill="#FDFBFB" fill-opacity="1" style="mix-blend-mode:passthrough"/></g><g><path d="M197.5670130517578,124.17506525878906C209.97340305175783,113.83917525878906,225.5020030517578,105.76339525878906,242.0806030517578,106.23195625878907C258.1343030517578,106.56270525878907,275.5142030517578,103.75133525878907,290.15860305175784,112.07518525878906C313.97700305175783,123.37576525878906,330.3340030517578,146.52816525878904,336.8270030517578,171.60996525878906C340.7230030517578,194.07336525878907,334.7830030517578,217.99726525878907,320.9120030517578,236.07826525878906C311.9870030517578,246.33126525878907,301.9850030517578,256.22626525878906,289.7165030517578,262.42826525878905C271.7287030517578,269.75926525878907,251.22650305175782,272.59826525878907,232.29920305175781,267.1412652587891C217.54430305175782,262.97926525878904,202.40245305175782,256.19926525878907,193.4223630517578,243.18926525878905C194.1960430517578,241.12226525878907,195.68810305175782,237.04326525878906,196.4617830517578,234.97626525878906C209.03390305175782,237.34626525878906,217.7101030517578,248.04026525878905,229.86770305175781,251.76126525878905C227.96120305175782,241.45326525878906,225.2810030517578,231.31026525878906,222.5731030517578,221.19426525878907C218.2074030517578,219.54126525878905,213.8417030517578,217.85926525878907,209.5036030517578,216.20626525878907C208.34310305175782,208.70926525878906,215.22330305175782,205.23616525878907,219.67190305175782,200.60566525878906C221.9652030517578,192.25426525878908,221.08100305175782,183.18616525878906,220.05870305175782,174.69696525878908C216.0522030517578,168.82616525878905,209.83520305175782,164.63666525878907,206.9616030517578,157.93906525878907C212.1286030517578,155.70646525878905,217.4061030517578,153.69446525878908,222.71130305175782,151.76506525878906C225.52960305175782,141.78746525878907,228.2375030517578,131.78226525878907,230.2545030517578,121.61176525878906C219.5061030517578,126.21466525878907,209.8076030517578,132.80216525878907,200.33012305175782,139.55486525878905C197.87096305175783,137.76336525878907,195.3841730517578,135.97176525878905,192.9250030517578,134.20776525878907C193.53288905175782,130.48686525878907,194.2512930517578,126.49036525878907,197.5670130517578,124.17506525878906ZM249.01600305175782,120.20606525878907C242.63320305175782,130.29396525878906,239.2070030517578,141.78746525878907,237.1347030517578,153.44636525878906C247.8555030517578,153.99756525878905,258.5763030517578,153.99756525878905,269.29720305175783,153.39126525878908C266.9762030517578,141.29136525878906,263.1078030517578,129.27416525878905,255.17770305175782,119.59976525878906C253.6304030517578,119.73756525878906,250.5634030517578,120.06826525878907,249.01600305175782,120.20606525878907ZM276.0115030517578,121.77716525878907C278.13910305175784,132.52646525878907,280.8193030517578,143.16556525878906,284.4114030517578,153.52906525878905C294.3310030517578,154.02516525878906,304.2780030517578,154.05276525878907,314.19800305175784,153.30856525878906C306.1850030517578,138.20436525878907,292.0099030517578,127.39986525878906,276.0115030517578,121.77716525878907ZM236.36100305175782,169.54276525878907C234.53730305175782,181.25676525878907,234.7860030517578,193.13616525878905,236.0847030517578,204.87776525878905C247.4687030517578,205.56686525878905,258.9079030517578,205.53926525878904,270.2919030517578,204.79506525878907C271.4524030517578,193.08106525878907,271.7287030517578,181.25676525878907,270.0156030517578,169.57036525878905C258.7974030517578,169.23956525878907,247.57920305175782,169.21206525878907,236.36100305175782,169.54276525878907ZM285.4061030517578,169.87356525878906C285.37850305175783,181.11896525878905,285.3508030517578,192.36446525878907,285.3508030517578,203.60996525878906C297.6470030517578,205.78736525878907,310.7160030517578,207.00026525878906,322.6530030517578,202.42476525878908C323.0120030517578,192.55736525878905,324.0900030517578,182.60736525878906,322.73600305175785,172.79516525878907C321.0500030517578,170.81066525878907,318.8670030517578,169.79086525878907,316.21500305175783,169.79086525878907C305.9640030517578,168.77106525878906,295.6570030517578,169.40496525878905,285.4061030517578,169.87356525878906ZM237.16230305175782,219.40326525878908C239.40040305175782,232.60526525878907,242.4675030517578,246.91026525878905,253.16070305175782,256.06126525878904C263.43940305175784,246.63526525878908,267.3354030517578,232.85326525878907,269.32480305175784,219.48626525878905C258.6040030517578,219.12726525878907,247.88310305175781,219.07226525878906,237.16230305175782,219.40326525878908ZM283.5548030517578,219.92726525878908C281.15090305175784,231.42026525878907,278.33250305175784,242.83126525878907,273.8563030517578,253.71826525878907C289.99280305175785,246.08326525878905,306.4610030517578,236.18826525878907,314.5290030517578,219.56826525878907C304.1950030517578,218.96226525878905,293.86100305175785,218.98926525878906,283.5548030517578,219.92726525878908Z" fill="#FDFBFB" fill-opacity="1" style="mix-blend-mode:passthrough"/></g></g><rect x="2.5" y="2.5" width="370" height="370" rx="61.5" fill-opacity="0" stroke-opacity="1" stroke="#FFFFFF" fill="none" stroke-width="5"/></g></svg>