<svg xmlns="http://www.w3.org/2000/svg" xmlns:xlink="http://www.w3.org/1999/xlink" fill="none" version="1.1" width="660" height="134" viewBox="0 0 660 134"><g><path d="M42.24,48.97L42.24,85.05L2.64,91.1L5.61,110.46Q26.07,107.16,46.53,103.86L46.2,99.57L58.52,99.57L58.52,92.75L63.25,92.75L63.25,95.83Q63.14,99.9,64.13,103.75Q64.9,105.95,66.44,107.6Q68.64,109.8,71.72,110.46Q76.01,111.34,80.41,111.34L89.1,111.34Q92.95,111.34,96.8,110.68Q99.55,110.13,101.86,108.59Q103.29,107.27,104.28,105.51Q105.6,102.32,106.04,99.02Q106.81,93.63,107.25,88.02L101.64,86.48L101.64,48.97L79.97,48.97L79.97,46.66L98.23,46.66L98.23,14.98L44.66,14.98L44.66,34.45L33.88,28.73Q31.24,34.12,28.38,39.29L24.42,39.4Q30.69,28.95,35.97,17.73L21.01,10.91Q16.28,23.12,9.9,34.34Q7.37,37.97,3.63,39.84L7.26,57.66Q10.89,57,14.74,56.56L18.15,56.23Q16.39,59.31,14.3,62.06Q11.11,66.46,5.83,67.45L9.57,86.15Q14.96,84.94,20.57,84.06Q30.36,82.41,40.37,80.98L40.37,63.71Q35.2,64.7,30.03,65.14Q33.22,60.3,36.19,55.24Q40.59,47.65,44.66,39.73L44.66,46.66L63.25,46.66L63.25,48.97L42.24,48.97ZM79.09,32.69L63.91,32.69L63.91,29.61L79.09,29.61L79.09,32.69ZM85.58,96.16L83.82,96.16Q82.06,96.38,80.74,95.39Q79.86,94.29,79.97,92.75L89.76,92.75Q89.65,94.29,88.77,95.5Q87.34,96.38,85.58,96.16ZM58.52,61.84L63.25,61.84L63.25,64.59L58.52,64.59L58.52,61.84ZM58.52,76.25L63.25,76.25L63.25,78.89L58.52,78.89L58.52,76.25ZM84.37,61.84L84.37,64.59L79.97,64.59L79.97,61.84L84.37,61.84ZM79.97,78.89L79.97,76.25L84.37,76.25L84.37,78.89L79.97,78.89ZM177.1,94.51L181.5,112.88L195.14,112.88Q199.65,112.88,204.16,112Q206.58,111.34,208.56,110.02Q210.87,108.04,211.75,105.07Q212.74,101.11,212.74,97.04L212.74,14.65L117.15,14.65L117.15,112.88L136.4,112.88L136.4,97.15L140.36,99.9Q146.08,91.76,151.36,83.18L153.34,87.25L156.75,85.38Q153.56,90.44,150.15,95.17L165.11,104.85Q172.15,94.95,178.31,84.28L183.04,94.07L193.16,89.01L193.16,90.88Q193.27,92.64,192.17,93.96Q190.85,94.73,189.31,94.51L177.1,94.51ZM174.35,41.6L170.72,43.25L172.48,38.3L157.63,33.13L193.16,33.13L193.16,39.07L181.39,34.89Q179.41,40.72,177.21,46.44Q175.67,44.13,174.35,41.6ZM144.98,34.78L136.4,38.85L136.4,33.13L156.2,33.13Q154,39.73,151.36,46Q148.17,40.39,144.98,34.78ZM136.4,74.05L136.4,53.04Q139.26,58.76,142.12,64.48Q139.37,69.43,136.4,74.05ZM193.16,52.49L193.16,75.37L187.88,65.36Q190.63,59.09,193.16,52.49ZM165.11,71.63L161.48,64.7Q163.24,61.18,164.89,57.44L168.74,64.92Q166.98,68.44,165.11,71.63ZM225.17,49.85L225.17,65.03L238.7,65.03Q236.5,67.78,233.75,69.76Q229.46,72.84,224.95,75.26L232.98,82.19L232.98,108.92L252.23,108.92L252.23,89.23L265.43,89.23L265.43,112.99L284.79,112.99L284.79,89.23L299.97,89.23Q300.08,90.99,299.31,92.53Q298.87,93.08,298.21,93.19Q297.11,93.41,296.01,93.3L287.1,93.3L290.62,108.81L304.26,108.81Q307.78,108.81,311.19,108.04Q314.05,107.27,316.03,105.29Q318.12,102.87,318.78,99.9Q319.33,96.71,319.44,93.41L319.44,72.62L284.79,72.62L284.79,70.42L297,70.42L297,30.6L304.81,30.6Q301.4,36.98,297.77,43.14Q300.96,45.23,303.82,47.65Q304.81,48.53,305.58,49.63Q306.02,50.29,306.13,51.06Q306.13,52.6,304.81,53.15Q302.94,53.7,300.96,53.59L297.44,53.59L300.85,68.99L309.1,68.99Q312.29,68.99,315.48,68.44Q318.56,67.78,321.2,66.02Q323.29,64.37,324.39,61.84Q325.38,59.2,325.38,56.23Q325.49,52.05,323.73,48.2Q321.31,43.91,317.46,40.94Q320.32,35.77,323.18,30.49L323.18,14.87L278.96,14.87L278.96,67.67L265.43,67.67L265.43,72.62L256.96,72.62Q259.05,69.1,260.37,65.03L277.75,65.03L277.75,49.85L262.79,49.85Q262.68,48.53,262.9,47.21L275.22,47.21L275.22,34.67L263.01,34.67L263.01,32.03L276.87,32.03L276.87,17.4L263.01,17.4L263.01,12.12L243.43,12.12L243.43,17.4L226.82,17.4L226.82,32.03L243.43,32.03L243.43,34.67L228.03,34.67L228.03,47.21L243.32,47.21Q243.32,48.64,243.21,49.85L225.17,49.85ZM385.55,48.64L390.5,48.64Q390.17,60.19,388.63,71.52Q387.53,78.45,385,84.94L385,83.18L382.36,83.62L382.36,15.97L338.36,15.97L338.36,89.78L333.3,90.33L335.83,110.57Q355.08,107.27,374.55,104.3L391.27,114.09Q397.54,105.73,402.05,96.38L405.24,111.78L414.26,111.78Q418.11,111.78,421.96,111.01Q424.93,110.35,427.24,108.48Q429.44,106.28,430.21,103.31Q430.98,100.45,431.2,97.37L433.4,28.62L409.31,28.62L409.75,12.12L391.16,12.12L390.83,28.62L385.55,28.62L385.55,48.64ZM408.98,48.64L414.7,48.64L413.38,86.26Q413.27,87.8,412.83,89.12Q412.5,90.11,411.62,90.77Q410.74,91.21,409.86,91.32Q408.1,91.65,406.34,91.54L403.92,91.54Q406.45,83.62,407.44,75.26Q408.76,61.95,408.98,48.64ZM356.18,87.47L356.18,79.66L364.87,79.66L364.87,86.26Q360.47,86.81,356.18,87.47ZM356.18,34.34L364.87,34.34L364.87,40.5L356.18,40.5L356.18,34.34ZM356.18,57.11L364.87,57.11L364.87,62.94L356.18,62.94L356.18,57.11ZM505.67,12.01L481.8,13.11Q483.12,19.05,484.22,24.99L444.62,24.99L444.62,44.68L459.47,44.68Q462.55,55.57,467.72,65.69Q472.01,73.61,477.95,80.43Q471.02,83.73,463.76,86.15Q453.42,89.45,442.86,91.98L454.19,112.77Q466.51,108.81,478.5,103.64Q487.08,100.01,495.11,95.06Q503.25,100.23,512.05,103.86Q524.04,108.81,536.58,112.44L547.58,91.32Q538.12,89.89,528.99,87.25Q520.08,84.72,511.94,80.54Q517.55,73.83,521.62,65.91Q526.57,55.68,529.76,44.68L545.27,44.68L545.27,24.99L507.43,24.99Q506.44,18.61,505.67,12.01ZM495,68.22Q485.65,58.1,482.13,44.68L507.32,44.68Q505.23,51.94,501.82,58.54Q498.96,63.82,495,68.22ZM589.82,90.44L589.82,109.14L633.05,109.14L633.05,112.99L652.3,112.99L652.3,44.24L643.39,44.24Q649.77,33.9,656.15,23.34L639.65,14.65Q635.58,22.46,631.07,29.83L631.07,12.01L611.6,12.01L611.6,28.84Q607.2,21.69,602.36,14.65L586.19,23.01L589.38,28.18L582.89,28.18L582.89,12.45L564.08,12.45L564.08,28.18L555.28,28.18L555.28,46.44L562.98,46.44Q559.35,57.44,553.08,67.12L556.49,94.07Q560.67,87.58,564.08,80.54L564.08,112.88L582.89,112.88L582.89,74.71Q585.2,77.57,587.73,80.21L594.11,67.89L594.11,86.04L633.05,86.04L633.05,90.44L589.82,90.44ZM596.09,64.04L594.99,62.83L633.05,62.83L633.05,67.34L594.33,67.34L596.09,64.04ZM590.59,46.44L590.59,30.16Q594.66,37.2,598.62,44.24L591.58,44.24L591.58,59.31Q587.18,55.13,582.89,50.95L582.89,46.44L590.59,46.44ZM600.6,44.24L611.6,37.97L611.6,44.24L600.6,44.24ZM641.08,44.24L631.07,44.24L631.07,38.3L641.08,44.24Z" fill="#FFFFFF" fill-opacity="1"/></g></svg>